# xmcd
#
# Track frame offsets:
#       182
#       18705
#       36637
#       47805
#       58562
#       70565
#       84265
#       99012
#       112167
#       125925
#       141227
#       153247
#       163790
#       177347
#       189722
#       200515
#       211167
#       227465
#       239660
#       252102
#       268567
#
# Disc length: 3764 seconds
#
# Revision: 1
# Processed by: cddbd v1.4PL0 Copyright (c) Steve Scherf et al.
# Submitted via: CD-DA_X-Tractor v0.21
#
DISCID=2e0eb215
DTITLE=Don Williams - Romantically Yours
DYEAR=1900
DGENRE=
TTITLE0=I Believe In You
TTITLE1=Only Love
TTITLE2=It Must Be Love
TTITLE3=(Turn Out The Light And) Love Me Tonight
TTITLE4=The Ties That Bind
TTITLE5=I Wouldn't Want To Live If You Didn't Love Me
TTITLE6=She's In Love With A Rodeo Man
TTITLE7=Lay Down Beside Me
TTITLE8=Missing You, Missing Me 
TTITLE9=Ain't It Amazing 
TTITLE10=I've Got A Winner In You 
TTITLE11=Sweet Fever
TTITLE12=Love Me Over Again 
TTITLE13=Failing in Love 
TTITLE14=Just Enough Love (For One Woman)
TTITLE15=Especially For You
TTITLE16=Love Is On A Roll 
TTITLE17=Nobody But You 
TTITLE18=I'll Take Your Love
TTITLE19=That's The Thing About Love
TTITLE20=Stay Young
EXTD=
EXTT0=
EXTT1=
EXTT2=
EXTT3=
EXTT4=
EXTT5=
EXTT6=
EXTT7=
EXTT8=
EXTT9=
EXTT10=
EXTT11=
EXTT12=
EXTT13=
EXTT14=
EXTT15=
EXTT16=
EXTT17=
EXTT18=
EXTT19=
EXTT20=
PLAYORDER=
